<svg id="Layer_1" data-name="Layer 1" xmlns="http://www.w3.org/2000/svg" viewBox="0 0 826.27 273.99"><defs><style>.cls-1{fill:#f5a01a;}.cls-2{fill:#fff;}.cls-2,.cls-4{fill-rule:evenodd;}.cls-3{fill:#bd9408;}.cls-4{fill:#808285;}.cls-5{fill:#231f20;}</style></defs><path class="cls-1" d="M292.24,141.64l14-56.27s-.89-3,14.7-9.47c.88-2.78,1.33-4.1,1.33-4.1a10.31,10.31,0,0,1-1.9-4.37,6.71,6.71,0,0,1-1.91-9c1.18.28,1.61-.45,1.76.28s-2.63-13.1,11.51-12.53c2.17.29,9.76.43,7.71,11.65,1.31.3,3.35-.13,2,6.28a17.56,17.56,0,0,1-2.77,2.64,8.37,8.37,0,0,1-1.47,3c-.13,2-.57,3.82.16,4.4s12.81,5.26,14.85,8.75c1.31,3.79,5.25,23.61,5.25,23.61l4.07-9.76s0-2.48,5.09-4.83a43.16,43.16,0,0,0,6.41-3.78l1.9-1.3,1.89-3.94a4.66,4.66,0,0,1-.59-3.22c-2.33-.16-4.51.73-8.28-4.79,1.44-1.46,3.61-2.93,4.36-9.63,1-2.18,2-7.73,10.34-8.45,2.18.29,8-1,10.91,13.7.72,1.59,2.62,3,3.94,2.92-.74,2.17-3.08,6-7.71,4.22a14.54,14.54,0,0,1-1.62,3.78c.58,3.06.44,5.26,2.78,6.14,2.75,1.75,8.14,4.49,8.14,4.49s2.77.6,4.53,7.3c1.88,4.37,2.16,5.25,2.16,5.25l3.94-6.4a8.78,8.78,0,0,1,4.82-3.52,63.26,63.26,0,0,1,6.7-1.6l.43-1.31s-1.59-3.64-1.31-5.84c-1.31.46-4.79-4.51-2.05-6.53,1.31.72,1.9.11,1.62-.76s-.59-8.3,8.43-9.75c1.17.15,8,.3,8.74,10.06.15.29,1.16,0,1.16,0l.59.29a11.11,11.11,0,0,1-1.16,6.57,3.11,3.11,0,0,0-1.17.58s-1.15,4.51-2.18,5.52c0,1.91,10.05,4.37,11.5,9.35.88,4.81,2.64,15.6,2.64,15.6s3.48-6,8.59-7.59c2.75-1,2.89-1,2.89-1s.3-.07,0-1.74c-.65-.87-1.24-.73-2.17-2.85-.72-.2-1.6-1-1.54-1.74a5.26,5.26,0,0,0-.36-1.69c-.08-.22-.36-.42-.3-.65a1.8,1.8,0,0,1,.44-.5l.44-.09.15-1.8-.24-1.11-1.22-.73s-.8,1-2.9.3c-.52.72-.88,2.12-2.63,3-1,.72-1.23.59-1.23.59s1.66-1.19,1.09-2.42-2.27-4.52,2.77-7.14c.87.15,1.16-.43,4.43,1.67.38-.8,6.76-11.14,14.41-1.52.66-.38,4.16-3.42,7.45.15.93,2.92,1.15,3.78.93,5.1s.37.42-.6-.65-1.5-2-1.87-2.13-2.56,2.27-4.45.8l-.29,3.43a1,1,0,0,1,.75,1c-.09.87-.17,3.21-.33,3.57s-.34,1.25-.64,1.25-.71.5-.71.5a5.33,5.33,0,0,1-.75,2.85,15.06,15.06,0,0,0,.44,2.77l.73.65s8.17,1.23,9.4,8.77,1.6,10.4,1.6,10.4l.65,11.74s-34.74,27.5-100.14,26.74c-4.33,0-48.54,1-89.67-23.8-2.3-2-1.38-1.34-1.38-1.34" transform="translate(-3.98 -7.91)"/><path class="cls-2" d="M317.64,77s2.8,7.67,8,12.33a47.9,47.9,0,0,1,4.84-7.13c.26-.17-8.61-4.74-9.22-7.65-2.38,1.49-3.61,2.19-3.61,2.19" transform="translate(-3.98 -7.91)"/><path class="cls-2" d="M331.9,82.33s5-3,6.27-7.68c.25-.28,4.9,1.94,4.9,1.94s-3.57,10.59-5.35,12.59c-.71-1.82-4-5.47-5.54-6.58-.54-.45-.28-.27-.28-.27" transform="translate(-3.98 -7.91)"/><path class="cls-2" d="M373.91,87.47a14.87,14.87,0,0,0,5.53,10,33.54,33.54,0,0,0,3.7,2.63s5.53-5.36,5.8-6.86c.61-1.59,2-4.67,1.57-6.42l1.32,1A23.72,23.72,0,0,1,384,101c-.69.78-.95.61-.95.61s-5.82-3.33-7.4-6.35-3-7.46-3-7.46l1.22-.28" transform="translate(-3.98 -7.91)"/><path class="cls-2" d="M459.42,107.72s-.65,5.43,5.53,6.49c1,.11,5.42-.07,7.2-5.53,2.71,1.4,4.66,2.56.79,4.59.16.51,0,4.11-2.73,1.83.08,1.14-.71,4.48-3.42,1.14-.62,1.32-2.46,4-4.49-.26-1.21.36-4,.7-3.15-2.64-1.14.18-4.22,0-1.61-3.62-.78-.33-1.66-.77-.43-1.3a10.09,10.09,0,0,1,2.31-.7" transform="translate(-3.98 -7.91)"/><path class="cls-2" d="M420.47,93s7.28,11.48,14.86-.18l1,.7s-2.21,5.14-7.65,5.58c-1.8,0-4.47.4-8.95-5.33l-.38-.38-.14-.31,1.23-.08" transform="translate(-3.98 -7.91)"/><polyline class="cls-2" points="328.95 91.22 325.43 91.22 325.43 73.74 328.95 73.74 328.95 91.22"/><path class="cls-3" d="M331.83,84.31a.65.65,0,1,1-1.26,0,.65.65,0,1,1,1.26,0" transform="translate(-3.98 -7.91)"/><path class="cls-3" d="M331.83,88.62a.65.65,0,1,1-.62-.8.73.73,0,0,1,.62.8" transform="translate(-3.98 -7.91)"/><path class="cls-3" d="M331.83,92.85a.65.65,0,1,1-.62-.8.74.74,0,0,1,.62.8" transform="translate(-3.98 -7.91)"/><path class="cls-3" d="M331.83,96.83a.65.65,0,1,1-1.26,0,.65.65,0,1,1,1.26,0" transform="translate(-3.98 -7.91)"/><path class="cls-4" d="M292.8,88.89c0,40.65,43.64,73.62,97.44,73.62s97.45-33,97.45-73.62-43.63-73.62-97.45-73.62-97.44,33-97.44,73.62Zm97.44-81c90.38,0,163.62,36.26,163.62,81s-73.24,81-163.62,81-163.61-36.25-163.61-81,73.25-81,163.61-81" transform="translate(-3.98 -7.91)"/><path class="cls-5" d="M207.43,62H216s.45-19.61.45-21.38-.67-3.58-4.74-4.85S182.59,27.9,134,27.9,11.19,46.48,11.19,87s50.12,62.92,125.56,62.92c51,0,71.59-6.89,74.07-7.4a8.59,8.59,0,0,0,6.3-4.83C218.72,134.59,226,116,226,116H217.6c-22.38,21.93-40,27.76-80.64,27.76-52.61,0-75.42-28-75.42-56.29s27.32-54,73.63-54S200,45,207.43,62" transform="translate(-3.98 -7.91)"/><path class="cls-5" d="M743.26,119.79c-15.43-8.28-67.68-38.36-67.68-38.36s49.78-23,63.95-29.59a298.11,298.11,0,0,1,30.35-12.09c2.22-.71,7.71-.71,7.71-.71V34.56H706.67v4.23s10.22.25,12.72.71,8,2.84,8,5-1.49,3.56-5,5.2-61.72,28.19-71.66,31.75a46.24,46.24,0,0,1-15,2.9V48.51c0-8.29,10.94-8.53,14.67-8.76s15.94-1,15.94-1V34.07h-110v4.72s12.19.71,15.91,1S587,40.22,587,48.51v80.71c0,8.27-10.93,8.5-14.67,8.76l-15.91.94v4.75h110v-4.75L650.42,138c-3.73-.26-14.67-.49-14.67-8.76V89.49h3.5a11.8,11.8,0,0,1,7,2.36c2,1.41,50.75,32.94,62,40s18.65,11.83,27.09,11.83h48.54v-5.05s-25.12-10.58-40.56-18.87" transform="translate(-3.98 -7.91)"/><path class="cls-5" d="M31.14,261.36c-.49,2.68-1.16,3.7,4.18,3.94l-.42,2.13H13.38l.44-2.13c4.9-.24,5.16-.92,5.71-3.94l5.57-27.44c.7-3,.65-3.7-4.13-3.91l.43-2.16H42.92L42.48,230c-5.52.21-5.13,1.24-5.77,3.91l-5.57,27.44" transform="translate(-3.98 -7.91)"/><path class="cls-5" d="M95.19,259.51h.09l6.38-9.56c1.93-2.82,2.81-5,2.81-6.45v-3.84c0-.51.22-.6.49-.67l2.2-.52a.72.72,0,0,1,.77.52l1.43,2.65a1.11,1.11,0,0,1,.16.62c.18.93-.21,2.1-3.46,6.69L92.85,268.13H86c-.33-6.58-.66-13.08-1-19.65-.2-4-.17-5.65-3.13-5.42a10.64,10.64,0,0,0-1.93.38l-.49-1.92,12.92-3.05c1,0,1.87.25,2.16,4.19l.67,16.85" transform="translate(-3.98 -7.91)"/><path class="cls-5" d="M133.24,259.29c-3.87,2.59-5.51,4.07-7.71,4.07-4.18,0-4.94-5.42-3.84-10.5,8.58,1.56,15.51-3.63,15.51-9.18,0-3.39-3-5.21-5.73-5.21-13.08,0-20.89,10.53-20.89,19,0,2.14.55,10.65,9,10.65a20.76,20.76,0,0,0,9.62-3.2l5.61-3.61-1.53-2Zm-4.61-18.1c.71,0,1.64.28,1.64,1.87,0,3.11-2.64,9-8.25,8.2.66-4.63,4.18-10.07,6.61-10.07" transform="translate(-3.98 -7.91)"/><path class="cls-5" d="M213.88,231.6a6.19,6.19,0,0,1,6.32-5.73c3.63,0,5.22,2.87,4.89,5.73a6.15,6.15,0,0,1-6.31,5.74c-3.64,0-5.23-2.88-4.9-5.74Zm-6.49,11,15.34-3.92a2.11,2.11,0,0,1,.83-.18c.6,0,1.38.46,1.38,1.76a5.52,5.52,0,0,1-.17,1.29l-3.25,15.11c-.92,4.17-.77,5,0,5a4.08,4.08,0,0,0,1.86-.56l2.39-1.24.87,1.92-12.76,6.35c-2.48-.37-3.81-1.44-4.13-4.09a8.79,8.79,0,0,1,.23-2.77l3.25-15.1c.32-1.57.77-2.83-.57-2.83a13.84,13.84,0,0,0-2.42.45l-2.3.51-.55-1.73" transform="translate(-3.98 -7.91)"/><path class="cls-5" d="M234.08,246.17c.33-1.48.38-1.57.33-2s-.24-.8-.9-.8a13.84,13.84,0,0,0-2.42.45l-2.3.51-.57-1.73,15.36-3.92a4,4,0,0,1,.77-.12c.82,0,1.44.4,1.44,1.7a6.1,6.1,0,0,1-.17,1.29L244,249l.33.11c4.23-6.45,11.71-10.64,17.05-10.64,2,0,3.19,1,3.19,3.64a12.93,12.93,0,0,1-.43,3.23L261,259c-.44,1.84-.28,2.7.5,2.7a4.29,4.29,0,0,0,1.87-.56l2.36-1.24.88,1.92-12.77,6.35c-2.47-.37-3.79-1.44-4.12-4.09a9.42,9.42,0,0,1,.22-2.77l3.14-12.51a11.35,11.35,0,0,0,.48-2.65c0-1.18-.21-1.87-1.13-1.87-1.94,0-8.7,6.61-11.29,17.92L240,267.43H229.49l4.59-21.26" transform="translate(-3.98 -7.91)"/><path class="cls-5" d="M285.5,279c-.21-1.5.66-2,1.64-3.54,1.44-2.15,3.51-4.31,4.8-7.33l-1.55-19.65c-.22-4-.15-5.65-3.12-5.42a9.7,9.7,0,0,0-1.93.38l-.5-1.92,12.91-3.05c2,0,2,2.5,2.16,4.19l.66,15.6,6.37-8.42c2.05-2.71,2.92-4.91,2.92-6.34v-3.84c-.06-.51.24-.6.51-.67l2.2-.52a.72.72,0,0,1,.76.52l1.44,2.65c.81,1.61-1.32,4.53-3.3,7.31l-15.69,21.3a24,24,0,0,0-4.45,8.48l-.44,1.81c-.18,1-.6,1.36-1.43,1.36H287c-.71,0-.89-.77-1.17-1.69L285.5,279" transform="translate(-3.98 -7.91)"/><path class="cls-5" d="M327.79,268.13c9.09,0,17.78-6.13,17.78-17.67,0-6.88-4.58-12-12.76-12-9.14,0-17.83,6.13-17.83,17.64,0,6.9,4.62,12,12.81,12Zm4.3-27.73c1,0,2.81.29,2.81,4.53.1,3.37-2,21.26-6.22,21.26-3,0-3-5.39-3-6.23-.44-7,3.08-19.56,6.43-19.56" transform="translate(-3.98 -7.91)"/><path class="cls-5" d="M380.49,259a7.1,7.1,0,0,0-.26,1.74c0,.66.38,1,.76,1a4.15,4.15,0,0,0,1.87-.56l2.36-1.24.89,1.92-12.77,6.35c-2.47-.37-3.78-1.44-4.12-4.09a7.54,7.54,0,0,1,.23-2.77l.82-3.67-.33.13c-4,5.63-11.73,10.4-17.06,10.4-2,0-3.19-1-3.19-3.7a22.89,22.89,0,0,1,.43-3.16l3.43-15.1a7.64,7.64,0,0,0,.31-2c0-.49-.21-.8-.86-.8a13.77,13.77,0,0,0-2.43.45l-2.31.51-.55-1.73,15.35-3.92a3.32,3.32,0,0,1,.89-.18c.55,0,1.3.46,1.3,1.76a5,5,0,0,1-.16,1.29l-4,16.3c-.72,2.83-1.14,4.52.39,4.52.87,0,8.36-4.19,11.56-17.92l1.21-5.27h10.44L380.49,259" transform="translate(-3.98 -7.91)"/><path class="cls-5" d="M389,267.43l4.57-21.26a7.8,7.8,0,0,0,.33-2c0-.49-.22-.8-.88-.8a13.52,13.52,0,0,0-2.42.45l-2.31.51-.55-1.73,15.35-3.92a3.51,3.51,0,0,1,.71-.12c.72-.06,1.49.4,1.49,1.7a5,5,0,0,1-.17,1.29L403.44,249h.44c5.32-7.14,6.77-10.53,13-10.53l-1.75,7.82-2.76,2a4.87,4.87,0,0,0-2.3-.49,6.17,6.17,0,0,0-3.14.95c-2.59,1.7-5.56,9.36-6.43,13.58l-1.06,5.09H389" transform="translate(-3.98 -7.91)"/><path class="cls-5" d="M457.51,242.32h-7.92c-4.51,22.39-8.81,31.66-14.2,39.24h-3.9l7.64-39.24h-5.27l.76-3.17h5.18c2.91-12,12.59-13.28,17.38-13.28,3.68,0,6.33.74,7.65,1.64l-1,6-1.87.61c-.88-3.42-2.31-5.36-4.64-5.36-2.62,0-5.2,2.51-6.25,7.7l-.61,2.71h9.14l-.45,2.27-1.64.9" transform="translate(-3.98 -7.91)"/><path class="cls-5" d="M487.66,259a6.59,6.59,0,0,0-.29,1.74c0,.66.39,1,.78,1a4.29,4.29,0,0,0,1.87-.56l2.36-1.24.88,1.92-12.78,6.35c-2.46-.37-3.78-1.44-4.1-4.09a7.76,7.76,0,0,1,.22-2.77l.82-3.67-.35.13c-3.95,5.63-11.7,10.4-17,10.4-2,0-3.18-1-3.18-3.7a20,20,0,0,1,.42-3.16l3.4-15.1a8,8,0,0,0,.35-2c0-.49-.22-.8-.87-.8a13.61,13.61,0,0,0-2.43.45l-2.31.51-.56-1.73,15.34-3.92a3.4,3.4,0,0,1,.89-.18c.55,0,1.31.46,1.31,1.76a5,5,0,0,1-.16,1.29l-4,16.3c-.71,2.83-1.14,4.52.4,4.52.88,0,8.36-4.19,11.55-17.92l1.2-5.27h10.45L487.66,259" transform="translate(-3.98 -7.91)"/><path class="cls-5" d="M46,246.17c.33-1.48.39-1.57.33-2s-.22-.8-.89-.8a13.84,13.84,0,0,0-2.42.45l-2.3.51-.55-1.73,15.34-3.92a4,4,0,0,1,.78-.12c.81,0,1.42.4,1.42,1.7a5.48,5.48,0,0,1-.16,1.29L55.9,249l.33.11c4.25-6.45,11.71-10.64,17-10.64,2,0,3.2,1,3.2,3.64a12.2,12.2,0,0,1-.45,3.23L72.94,259c-.43,1.84-.27,2.7.52,2.7a4.18,4.18,0,0,0,1.86-.56l2.37-1.24.86,1.92L65.8,268.13c-2.48-.37-3.79-1.44-4.13-4.09a9.77,9.77,0,0,1,.22-2.77L65,248.76a10.76,10.76,0,0,0,.48-2.65c0-1.18-.22-1.87-1.16-1.87-1.92,0-8.68,6.61-11.27,17.92l-1.2,5.27H41.43L46,246.17" transform="translate(-3.98 -7.91)"/><path class="cls-5" d="M162.39,246.05H160.3c-1-3.48-2.76-5.43-4.51-5.43a3.59,3.59,0,0,0-3.8,3.8c0,2.43,2,4.18,4.73,6.84,2.11,2,4.57,4.64,4.57,8.36,0,4.31-5.12,8.51-14.64,8.51-4.44,0-7.37-1.14-9.33-2.62l.87-6.68h2.31c.45,4.31,2.86,7.29,5.94,7.24a4.75,4.75,0,0,0,4.84-4.59c0-3.1-1.17-4.52-4.28-7.39-2.94-2.71-4.47-4.07-4.47-7.92,0-5.48,4.9-7.7,11.77-7.7,3.31,0,7.1.68,9,1.7l-.88,5.88" transform="translate(-3.98 -7.91)"/><path class="cls-5" d="M191.59,240.62l-1.74,1.7h-6.39l-3.09,13.91a18.81,18.81,0,0,0-.49,3.73c0,2.78,1.38,3.62,2.8,3.62a13.2,13.2,0,0,0,4.41-1.11l.82,2.24-12.2,3.42c-5,0-6.77-2.12-6.77-5.66a22.47,22.47,0,0,1,.44-4.44l3.3-15.65h-5.61l.81-3.23h5.56l.94-5.18a12.89,12.89,0,0,0,8.15-3.63H186L184,239.15h8l-.35,1.47" transform="translate(-3.98 -7.91)"/><path class="cls-5" d="M521.05,240.62l-1.77,1.7h-6.37l-3.08,13.91a18.33,18.33,0,0,0-.51,3.73c0,2.78,1.38,3.62,2.81,3.62a13.44,13.44,0,0,0,4.41-1.11l.82,2.24-12.22,3.42c-5,0-6.74-2.12-6.74-5.66a21.61,21.61,0,0,1,.42-4.44l3.3-15.65h-5.61l.83-3.23h5.55l.92-5.18a12.87,12.87,0,0,0,8.15-3.63h3.53l-2.09,8.81h8l-.32,1.47" transform="translate(-3.98 -7.91)"/><path class="cls-5" d="M552,259a6.07,6.07,0,0,0-.28,1.74c0,.66.39,1,.78,1a4.29,4.29,0,0,0,1.87-.56l2.36-1.24.88,1.92-12.76,6.35c-2.47-.37-3.8-1.44-4.12-4.09a7.76,7.76,0,0,1,.22-2.77l.82-3.67-.34.13c-4,5.63-11.71,10.4-17,10.4-2,0-3.18-1-3.18-3.7a19,19,0,0,1,.43-3.16l3.41-15.1a7.39,7.39,0,0,0,.33-2c0-.49-.21-.8-.88-.8a13.59,13.59,0,0,0-2.41.45l-2.33.51-.53-1.73,15.34-3.92a3.58,3.58,0,0,1,.9-.18c.54,0,1.29.46,1.29,1.76a5,5,0,0,1-.16,1.29l-4,16.3c-.72,2.83-1.16,4.52.39,4.52.88,0,8.36-4.19,11.54-17.92l1.22-5.27h10.46L552,259" transform="translate(-3.98 -7.91)"/><path class="cls-5" d="M560.43,267.43,565,246.17a7,7,0,0,0,.33-2c0-.49-.22-.8-.86-.8a13.69,13.69,0,0,0-2.44.45l-2.31.51-.55-1.73,15.36-3.92a3.42,3.42,0,0,1,.7-.12c.72-.06,1.5.4,1.5,1.7a5.52,5.52,0,0,1-.17,1.29L574.9,249h.43c5.34-7.14,6.77-10.53,13-10.53l-1.77,7.82-2.74,2a4.93,4.93,0,0,0-2.3-.49,6.2,6.2,0,0,0-3.14.95c-2.59,1.7-5.55,9.36-6.44,13.58l-1.06,5.09H560.43" transform="translate(-3.98 -7.91)"/><path class="cls-5" d="M610.81,259.29c-3.84,2.59-5.49,4.07-7.69,4.07-4.17,0-5-5.42-3.85-10.5,8.59,1.56,15.51-3.63,15.51-9.18,0-3.39-3-5.21-5.72-5.21-13.09,0-20.9,10.53-20.9,19,0,2.14.55,10.65,9,10.65a20.76,20.76,0,0,0,9.62-3.2l5.61-3.61-1.55-2Zm-4.61-18.1c.72,0,1.66.28,1.66,1.87,0,3.11-2.67,9-8.26,8.2.66-4.63,4.19-10.07,6.6-10.07" transform="translate(-3.98 -7.91)"/><path class="cls-5" d="M659,240.62l-1.76,1.7h-6.38l-3.09,13.91a18.81,18.81,0,0,0-.49,3.73c0,2.78,1.37,3.62,2.81,3.62a13.32,13.32,0,0,0,4.4-1.11l.83,2.24-12.22,3.42c-5,0-6.77-2.12-6.77-5.66a23.25,23.25,0,0,1,.44-4.44l3.29-15.65h-5.59l.82-3.23h5.57l.92-5.18a12.85,12.85,0,0,0,8.14-3.63h3.51l-2.08,8.81h8l-.34,1.47" transform="translate(-3.98 -7.91)"/><path class="cls-5" d="M671,268.13c9.07,0,17.77-6.13,17.77-17.67,0-6.88-4.58-12-12.78-12-9.13,0-17.81,6.13-17.81,17.64,0,6.9,4.63,12,12.82,12Zm4.28-27.73c1,0,2.82.29,2.82,4.53.09,3.37-2,21.26-6.23,21.26-3,0-3-5.39-3-6.23-.45-7,3.07-19.56,6.42-19.56" transform="translate(-3.98 -7.91)"/><path class="cls-5" d="M729.58,225.87l-16.73,1.31-.43,1.93,3.52-.19c.62,0,1.86,0,1.86,1.54a8,8,0,0,1-.32,2l-1.42,6.66c-17,0-24.22,11.09-24.22,19.47,0,5.76,2.54,9.51,6.4,9.51,3.5,0,9.68-4.55,13.85-12.23l.33.16-1.1,5.21c-.42,1.74-.28,4,.43,5a4.68,4.68,0,0,0,3.46,1.89L728,261.78l-.88-1.92-2.38,1.19c-2.4,1.26-3,.68-2.34-2.09l7.19-33.09Zm-14,15.77c-2.26,7.92-7.53,19.28-10.4,19.28-1.63,0-2.36-1.25-2.43-3.91-.05-3.76,1.78-15.37,8.48-15.37h4.35" transform="translate(-3.98 -7.91)"/><path class="cls-5" d="M765.65,239.15H755.4c-17.3,0-24.54,11.09-24.54,19.47,0,5.76,2.52,9.51,6.37,9.51,3.52,0,9.69-4.55,13.85-12.23l.33.16-1.09,5.21c-.44,1.74-.27,4,.44,5a4.6,4.6,0,0,0,3.46,1.89L767,261.78l-.9-1.92-2.37,1.19c-2.4,1.26-3,.68-2.36-2.09l4.28-19.81Zm-11.11,2.49c-2.23,7.92-7.53,19.28-10.39,19.28-1.64,0-2.59-1.25-2.64-3.91,0-3.76,2-15.37,8.69-15.37h4.34" transform="translate(-3.98 -7.91)"/><path class="cls-5" d="M768.52,279c-.22-1.5.67-2,1.65-3.54,1.44-2.15,3.52-4.31,4.79-7.33l-1.53-19.65c-.23-4-.17-5.65-3.16-5.42a9.94,9.94,0,0,0-1.91.38l-.51-1.92,12.94-3.05c2,0,2,2.5,2.15,4.19l.66,15.6,6.38-8.42c2-2.71,2.92-4.91,2.92-6.34v-3.84c-.07-.51.22-.6.48-.67l2.2-.52a.7.7,0,0,1,.77.52l1.45,2.65c.82,1.61-1.33,4.53-3.32,7.31l-15.66,21.3c-2.21,2.94-3.92,5.92-4.46,8.48l-.45,1.81c-.16,1-.6,1.36-1.43,1.36H770c-.71,0-.88-.77-1.15-1.69l-.34-1.21" transform="translate(-3.98 -7.91)"/><path class="cls-5" d="M798.13,263.73a5.63,5.63,0,0,1,6-6,4.19,4.19,0,0,1,4.33,4.3c0,3.67-2.35,6.07-5.95,6.07a4.25,4.25,0,0,1-4.35-4.4Zm4.09-8.85c1.11-8.83,2.26-19.69,2.42-26.81.16-1.58,1.05-2.2,6-2.2,5.36,0,6,.62,5.4,2.32-3.13,6.9-6.43,18.2-9.58,26.69h-4.23" transform="translate(-3.98 -7.91)"/><path class="cls-5" d="M801.58,132.17H803c1.73,0,3.15-.6,3.15-2.2,0-1.13-.83-2.25-3.15-2.25a10.54,10.54,0,0,0-1.46.09v4.36Zm0,7.13h-2.05V126.45a22.33,22.33,0,0,1,3.62-.3,6.7,6.7,0,0,1,4,1,3,3,0,0,1,1.16,2.64,3.18,3.18,0,0,1-2.49,3.13V133c1.12.2,1.9,1.24,2.15,3.13a10.2,10.2,0,0,0,.82,3.18h-2.17a9.57,9.57,0,0,1-.85-3.26,2.4,2.4,0,0,0-2.78-2.27h-1.42v5.53Zm2.14-16.43a9.77,9.77,0,0,0,.06,19.51c5.14,0,9.21-4.31,9.21-9.75a9.45,9.45,0,0,0-9.21-9.76Zm.06-1.81a11.44,11.44,0,1,1-.06,0h.06" transform="translate(-3.98 -7.91)"/><path d="M23.5,210.77A20,20,0,0,1,16,212.16q-5.69,0-8.86-3C5,207.1,4,204.28,4,200.65s1-6.48,3.1-8.48,5-3,8.75-3a30.07,30.07,0,0,1,7.28,1v4.51H20.86v-.28c0-1.31-.22-2.15-.65-2.5a6.65,6.65,0,0,0-4.31-1.24,5.89,5.89,0,0,0-5.13,2.59C9.56,194.94,9,197.4,9,200.57s.68,5.69,2,7.31,3.38,2.44,6.07,2.44a16.22,16.22,0,0,0,6.44-1.62Z" transform="translate(-3.98 -7.91)"/><path d="M37.52,212.16a11.21,11.21,0,0,1-8.36-3.09,13.1,13.1,0,0,1,0-16.83q3-3.08,8.36-3.07a11.24,11.24,0,0,1,8.34,3.07c2,2.06,3,4.86,3,8.42s-1,6.36-3,8.41A11.21,11.21,0,0,1,37.52,212.16Zm0-1.45a5.33,5.33,0,0,0,4.83-2.53q1.6-2.52,1.61-7.57t-1.61-7.5a5.36,5.36,0,0,0-4.83-2.49,5.36,5.36,0,0,0-4.82,2.49c-1.08,1.66-1.61,4.16-1.61,7.5s.53,5.89,1.61,7.57A5.33,5.33,0,0,0,37.52,210.71Z" transform="translate(-3.98 -7.91)"/><path d="M57.7,201.08v6.25c0,1.66.16,2.54.5,2.64a7.19,7.19,0,0,0,1.29.25h.27v1.38h-9v-1.38h.29c1-.07,1.63-.24,1.84-.51a5.3,5.3,0,0,0,.3-2.38V194a5.28,5.28,0,0,0-.3-2.37c-.19-.26-.81-.44-1.84-.51l-.29,0v-1.37h9v1.37l-.27,0c-.85.06-1.36.24-1.53.51A5.92,5.92,0,0,0,57.7,194v5.83L64.26,194c1.62-1.44,2.43-2.3,2.43-2.57s-.5-.33-1.52-.33H64.9v-1.37h6.85v1.37h-.28a5.11,5.11,0,0,0-1.78.31c-.23.14-1.27,1-3.11,2.66l-5.27,4.72,7.63,8.57a24.93,24.93,0,0,0,2.47,2.48,3.72,3.72,0,0,0,1.74.38h.28v1.38H62.56v-1.38h.27c1.25,0,1.88-.14,1.9-.44A9.48,9.48,0,0,0,63,207.32Z" transform="translate(-3.98 -7.91)"/><path d="M84.58,211.34v-4.57h2.25l0,.36a3.46,3.46,0,0,0,.77,2.48,5.13,5.13,0,0,0,3.28,1.1,4,4,0,0,0,2.91-1.08,3.74,3.74,0,0,0,1.12-2.83,3.59,3.59,0,0,0-.65-2.22,8.42,8.42,0,0,0-2.53-1.83l-1.5-.8q-5.64-3-5.64-6.6a5.55,5.55,0,0,1,2-4.49,8.19,8.19,0,0,1,5.41-1.69,22.63,22.63,0,0,1,6,1v4.41H95.86l0-.27a4.51,4.51,0,0,0-.62-2.57,3.93,3.93,0,0,0-2.83-1.08,3.35,3.35,0,0,0-2.46,1,3.41,3.41,0,0,0-1,2.49,2.82,2.82,0,0,0,.66,1.9,9.58,9.58,0,0,0,2.51,1.82l1.52.86A17.13,17.13,0,0,1,98.18,202a5.4,5.4,0,0,1,1.22,3.56,5.77,5.77,0,0,1-2.3,4.8,9.87,9.87,0,0,1-6.2,1.79A28.46,28.46,0,0,1,84.58,211.34Z" transform="translate(-3.98 -7.91)"/><path d="M113,212.16a11.22,11.22,0,0,1-8.36-3.09c-2-2-3-4.86-3-8.41s1-6.36,3-8.42a11.25,11.25,0,0,1,8.36-3.07,11.2,11.2,0,0,1,8.34,3.07,13.1,13.1,0,0,1,0,16.83A11.18,11.18,0,0,1,113,212.16Zm0-1.45a5.33,5.33,0,0,0,4.83-2.53q1.6-2.52,1.6-7.57t-1.6-7.5a5.93,5.93,0,0,0-9.66,0q-1.61,2.49-1.61,7.5t1.61,7.57A5.35,5.35,0,0,0,113,210.71Z" transform="translate(-3.98 -7.91)"/><path d="M126.22,211.61v-1.38h.29c1-.07,1.64-.24,1.84-.51a5.3,5.3,0,0,0,.3-2.38V194a5.5,5.5,0,0,0-.29-2.37c-.2-.26-.82-.44-1.85-.51l-.29,0v-1.37h7.31l3.24-.05,1.2,0c3.5,0,6.2.92,8.09,2.74s2.82,4.43,2.82,7.81a11.76,11.76,0,0,1-2.87,8.31,10,10,0,0,1-7.7,3.1Zm7.1-20.45v16.16c0,1.2.19,2,.56,2.27a5,5,0,0,0,2.73.47,6.38,6.38,0,0,0,5.49-2.47q1.83-2.46,1.83-7.39c0-3.27-.68-5.6-2-7s-3.64-2.07-6.88-2.07Z" transform="translate(-3.98 -7.91)"/><path d="M156.41,205l-1.14,2.35a7.24,7.24,0,0,0-.83,2.39c0,.32.32.49,1,.49l.58,0h.29v1.38h-6v-1.38h.29a2.72,2.72,0,0,0,1.53-.38,14.66,14.66,0,0,0,1.36-2.53l8.39-17.79h1.55l8.45,17.8a14.5,14.5,0,0,0,1.42,2.5,3,3,0,0,0,1.59.4h.2v1.38h-9.38v-1.38H166c1.28-.08,1.92-.27,1.94-.58a7.58,7.58,0,0,0-.86-2.35L165.9,205Zm.71-1.46h8.07l-4.1-8.51Z" transform="translate(-3.98 -7.91)"/><path d="M193,211.61H175.67v-1.38H176c1-.07,1.64-.24,1.84-.51a5.25,5.25,0,0,0,.31-2.38V194a5.28,5.28,0,0,0-.3-2.37c-.2-.26-.81-.44-1.85-.51l-.29,0v-1.37h9.56v1.37l-.27,0c-1,.07-1.67.25-1.86.51a5.28,5.28,0,0,0-.3,2.37v13.33c0,1.64.2,2.51.6,2.62a13.62,13.62,0,0,0,2.43.12h1.9a18.78,18.78,0,0,0,2.19-.12.77.77,0,0,0,.67-.37,13.73,13.73,0,0,0,.14-2.89l0-.28H193Z" transform="translate(-3.98 -7.91)"/><path d="M203.42,211.61h-9.56v-1.38h.29c1-.07,1.64-.24,1.84-.51a5.25,5.25,0,0,0,.31-2.38V194a5.28,5.28,0,0,0-.3-2.37c-.2-.26-.81-.44-1.85-.51l-.29,0v-1.37h9.56v1.37l-.27,0c-1,.07-1.66.25-1.86.51A5.28,5.28,0,0,0,201,194v13.34a5.1,5.1,0,0,0,.31,2.38c.2.27.82.44,1.85.51h.27Z" transform="translate(-3.98 -7.91)"/><path d="M212.86,191.16H209.2a2.92,2.92,0,0,0-1.82.38c-.27.25-.41,1-.42,2.32v.41H204.7v-4.55h21v4.55h-2.25l0-.41c0-1.3-.15-2.07-.41-2.32a2.92,2.92,0,0,0-1.82-.38h-3.66v16.16a6.61,6.61,0,0,0,.35,2.49,4.84,4.84,0,0,0,2.18.41h.28v1.38H210.05v-1.38h.27a3.89,3.89,0,0,0,2.2-.51,4.65,4.65,0,0,0,.34-2.38Z" transform="translate(-3.98 -7.91)"/><path d="M235.05,202.14l-5.11-8c-.64-1-1-1.56-1.08-1.7a3.47,3.47,0,0,0-.76-1.09,5.38,5.38,0,0,0-1.55-.22l-.3,0v-1.37H236v1.37h-.25c-1.17,0-1.77.16-1.79.47a7.6,7.6,0,0,0,1.29,2.58l3.83,6.1,3.92-6.1a7.9,7.9,0,0,0,1.29-2.49c0-.37-.49-.56-1.48-.56h-.33v-1.37h6.18v1.37l-.28,0a3.9,3.9,0,0,0-1.53.26c-.11.11-.74,1-1.89,2.75l-5.22,8v5.22a5.3,5.3,0,0,0,.3,2.38c.2.27.82.44,1.85.51h.28v1.38h-9.56v-1.38h.28c1-.07,1.65-.24,1.85-.51a5.3,5.3,0,0,0,.3-2.38Z" transform="translate(-3.98 -7.91)"/><path d="M279,210.77a20,20,0,0,1-7.49,1.39q-5.69,0-8.86-3c-2.11-2-3.17-4.85-3.17-8.48s1-6.48,3.1-8.48,5-3,8.75-3a30.07,30.07,0,0,1,7.28,1v4.51H276.4v-.28c0-1.31-.22-2.15-.65-2.5a6.65,6.65,0,0,0-4.31-1.24,5.89,5.89,0,0,0-5.13,2.59c-1.21,1.73-1.81,4.19-1.81,7.36s.68,5.69,2,7.31,3.38,2.44,6.07,2.44A16.18,16.18,0,0,0,279,208.7Z" transform="translate(-3.98 -7.91)"/><path d="M293.06,212.16a11.21,11.21,0,0,1-8.36-3.09,13.1,13.1,0,0,1,0-16.83q3-3.08,8.36-3.07a11.24,11.24,0,0,1,8.34,3.07,13.1,13.1,0,0,1,0,16.83A11.21,11.21,0,0,1,293.06,212.16Zm0-1.45a5.35,5.35,0,0,0,4.84-2.53q1.61-2.52,1.6-7.57t-1.6-7.5a5.93,5.93,0,0,0-9.66,0q-1.61,2.49-1.61,7.5t1.61,7.57A5.34,5.34,0,0,0,293.06,210.71Z" transform="translate(-3.98 -7.91)"/><path d="M306.6,203.77V201h7v2.75Z" transform="translate(-3.98 -7.91)"/><path d="M327.27,212.16a11.21,11.21,0,0,1-8.36-3.09,13.1,13.1,0,0,1,0-16.83q3-3.08,8.36-3.07a11.24,11.24,0,0,1,8.34,3.07c2,2.06,3.05,4.86,3.05,8.42s-1,6.36-3.05,8.41A11.21,11.21,0,0,1,327.27,212.16Zm0-1.45a5.33,5.33,0,0,0,4.83-2.53q1.61-2.52,1.61-7.57t-1.61-7.5a5.92,5.92,0,0,0-9.65,0c-1.08,1.66-1.61,4.16-1.61,7.5s.53,5.89,1.61,7.57A5.33,5.33,0,0,0,327.27,210.71Z" transform="translate(-3.98 -7.91)"/><path d="M347.45,202.63v4.7a4.81,4.81,0,0,0,.33,2.39c.22.26,1,.42,2.19.5h.29v1.38h-9.74v-1.38h.29c1-.07,1.63-.24,1.84-.51a5.3,5.3,0,0,0,.3-2.38V194a5.28,5.28,0,0,0-.3-2.37c-.19-.26-.81-.44-1.84-.51l-.29,0v-1.37h6.93l2.9-.08,1.28,0q6.63,0,6.64,5.79a6.41,6.41,0,0,1-2.36,5.42q-2.36,1.81-7.06,1.81Zm0-1.45h.89a5.09,5.09,0,0,0,3.88-1.36,5.71,5.71,0,0,0,1.29-4.07q0-4.59-4.42-4.59h-1.64Z" transform="translate(-3.98 -7.91)"/><path d="M376.79,211.61H359.64v-1.38h.28c1-.07,1.64-.24,1.84-.51a5.1,5.1,0,0,0,.31-2.38V194a5.28,5.28,0,0,0-.3-2.37c-.2-.26-.81-.44-1.85-.51l-.28,0v-1.37h16.5v3.91h-2.25l0-.28c0-.5,0-.79,0-.88,0-.56-.14-.91-.41-1.07a4.24,4.24,0,0,0-1.81-.24h-4.84v8.32h3.13a12,12,0,0,0,2.08-.09c.18-.06.27-.51.29-1.36l0-.28h1.59v4.73H372.3l0-.26q0-1.17-.42-1.32a7.44,7.44,0,0,0-1.95-.15h-3.22v6.57c0,1.64.2,2.51.6,2.62a13.47,13.47,0,0,0,2.42.12h1.89a7.16,7.16,0,0,0,2.55-.22c.19-.14.32-.83.4-2.06v-.28h2.25Z" transform="translate(-3.98 -7.91)"/><path d="M385.27,202v5.32a6,6,0,0,0,.27,2.39c.18.28.69.45,1.53.5h.27v1.38h-9v-1.38h.29c1-.07,1.64-.24,1.84-.51a5.3,5.3,0,0,0,.3-2.38V194a5.34,5.34,0,0,0-.29-2.37c-.2-.26-.81-.44-1.85-.51l-.29,0v-1.37h6.55l2.78-.08,1.39,0q7,0,7,5.54a6.59,6.59,0,0,1-1.08,3.83,6.86,6.86,0,0,1-3.25,2.42l4.39,6a18.55,18.55,0,0,0,2.06,2.46,3.4,3.4,0,0,0,1.71.4h.29v1.38h-6.71L387.2,202Zm0-1.45h.84a5.14,5.14,0,0,0,3.78-1.38,5,5,0,0,0,1.4-3.75c0-2.84-1.44-4.27-4.31-4.27h-1.71Z" transform="translate(-3.98 -7.91)"/><path d="M406.24,205l-1.14,2.35a7,7,0,0,0-.83,2.39c0,.32.32.49,1,.49l.57,0h.29v1.38h-6v-1.38h.29a2.72,2.72,0,0,0,1.53-.38,15.47,15.47,0,0,0,1.36-2.53l8.39-17.79h1.55l8.45,17.8a14.5,14.5,0,0,0,1.42,2.5,2.94,2.94,0,0,0,1.59.4h.19v1.38h-9.37v-1.38h.29c1.27-.08,1.92-.27,1.94-.58a7.73,7.73,0,0,0-.87-2.35L415.73,205Zm.71-1.46H415l-4.1-8.51Z" transform="translate(-3.98 -7.91)"/><path d="M433.62,191.16H430a2.88,2.88,0,0,0-1.81.38c-.27.25-.41,1-.42,2.32l0,.41h-2.25v-4.55h21v4.55h-2.25v-.41c0-1.3-.15-2.07-.42-2.32a2.9,2.9,0,0,0-1.82-.38h-3.66v16.16a6.85,6.85,0,0,0,.35,2.49,4.86,4.86,0,0,0,2.19.41h.27v1.38H430.8v-1.38h.28c1.23-.08,2-.25,2.19-.51a4.61,4.61,0,0,0,.35-2.38Z" transform="translate(-3.98 -7.91)"/><path d="M457.28,211.61h-9.56v-1.38H448c1-.07,1.63-.24,1.84-.51a5.3,5.3,0,0,0,.3-2.38V194a5.28,5.28,0,0,0-.3-2.37c-.19-.26-.81-.44-1.84-.51l-.29,0v-1.37h9.56v1.37l-.28,0c-1,.07-1.66.25-1.86.51a5.5,5.5,0,0,0-.29,2.37v13.34a5.3,5.3,0,0,0,.3,2.38c.2.27.82.44,1.85.51h.28Z" transform="translate(-3.98 -7.91)"/><path d="M469.05,211.89l-8-17.93a19.35,19.35,0,0,0-1.27-2.57,3.75,3.75,0,0,0-1.58-.28l-.29,0v-1.37h9.75v1.37l-.29,0-1.17,0a.55.55,0,0,0-.59.61,8.63,8.63,0,0,0,.78,2.22l5,11.54L476.33,194c.11-.26.26-.67.47-1.25a4.55,4.55,0,0,0,.31-1.07c0-.36-.32-.54-.94-.54h-.87l-.27,0v-1.37h6.37v1.37l-.28,0-.65,0a1.36,1.36,0,0,0-1,.38,17.73,17.73,0,0,0-1.21,2.43l-7.66,17.93Z" transform="translate(-3.98 -7.91)"/><path d="M499.19,211.61H482v-1.38h.29c1-.07,1.64-.24,1.84-.51a5.25,5.25,0,0,0,.31-2.38V194a5.28,5.28,0,0,0-.3-2.37c-.2-.26-.81-.44-1.85-.51l-.29,0v-1.37h16.51v3.91h-2.25l0-.28c0-.5-.05-.79-.05-.88,0-.56-.13-.91-.4-1.07a4.27,4.27,0,0,0-1.82-.24h-4.83v8.32h3.13a12,12,0,0,0,2.08-.09c.17-.06.27-.51.29-1.36l0-.28h1.6v4.73h-1.6l0-.26c0-.78-.16-1.22-.43-1.32a7.29,7.29,0,0,0-1.94-.15h-3.22v6.57c0,1.64.2,2.51.6,2.62a13.47,13.47,0,0,0,2.42.12H494a7.16,7.16,0,0,0,2.55-.22c.18-.14.32-.83.4-2.06v-.28h2.25Z" transform="translate(-3.98 -7.91)"/><path d="M530.51,210.77a20,20,0,0,1-7.49,1.39q-5.68,0-8.86-3c-2.12-2-3.18-4.85-3.18-8.48s1-6.48,3.11-8.48,5-3,8.75-3a30.13,30.13,0,0,1,7.28,1v4.51h-2.25v-.28c0-1.31-.22-2.15-.66-2.5a6.62,6.62,0,0,0-4.3-1.24,5.89,5.89,0,0,0-5.13,2.59c-1.21,1.73-1.81,4.19-1.81,7.36s.68,5.69,2,7.31,3.37,2.44,6.07,2.44a16.22,16.22,0,0,0,6.44-1.62Z" transform="translate(-3.98 -7.91)"/><path d="M539.49,202v5.32a6,6,0,0,0,.27,2.39c.18.28.69.45,1.53.5h.27v1.38h-9v-1.38h.29c1-.07,1.64-.24,1.84-.51a5.25,5.25,0,0,0,.31-2.38V194a5.28,5.28,0,0,0-.3-2.37c-.2-.26-.81-.44-1.85-.51l-.29,0v-1.37h6.55l2.79-.08,1.38,0q7,0,7,5.54a6.59,6.59,0,0,1-1.08,3.83,6.86,6.86,0,0,1-3.25,2.42l4.39,6a18.55,18.55,0,0,0,2.06,2.46,3.4,3.4,0,0,0,1.71.4h.29v1.38h-6.7l-6.24-9.6Zm0-1.45h.84a5.14,5.14,0,0,0,3.78-1.38,5,5,0,0,0,1.4-3.75c0-2.84-1.44-4.27-4.31-4.27h-1.71Z" transform="translate(-3.98 -7.91)"/><path d="M572.12,211.61H555v-1.38h.28c1-.07,1.64-.24,1.84-.51a5.1,5.1,0,0,0,.31-2.38V194a5.28,5.28,0,0,0-.3-2.37c-.2-.26-.81-.44-1.85-.51l-.28,0v-1.37h16.5v3.91h-2.25l0-.28c0-.5-.05-.79-.05-.88,0-.56-.13-.91-.4-1.07a4.24,4.24,0,0,0-1.81-.24h-4.84v8.32h3.13a12,12,0,0,0,2.08-.09c.18-.06.27-.51.29-1.36l0-.28h1.59v4.73h-1.59l0-.26q0-1.17-.42-1.32a7.44,7.44,0,0,0-1.95-.15H562v6.57c0,1.64.2,2.51.6,2.62a13.47,13.47,0,0,0,2.42.12h1.89a7.16,7.16,0,0,0,2.55-.22c.19-.14.32-.83.4-2.06v-.28h2.25Z" transform="translate(-3.98 -7.91)"/><path d="M573.67,211.61v-1.38H574c1-.07,1.64-.24,1.84-.51a5.3,5.3,0,0,0,.3-2.38V194a5.34,5.34,0,0,0-.29-2.37c-.2-.26-.81-.44-1.85-.51l-.29,0v-1.37H581l3.25-.05,1.19,0c3.5,0,6.2.92,8.09,2.74s2.82,4.43,2.82,7.81a11.71,11.71,0,0,1-2.87,8.31,10,10,0,0,1-7.7,3.1Zm7.1-20.45v16.16c0,1.2.19,2,.56,2.27a5,5,0,0,0,2.73.47,6.37,6.37,0,0,0,5.49-2.47q1.83-2.46,1.83-7.39c0-3.27-.68-5.6-2-7s-3.64-2.07-6.87-2.07Z" transform="translate(-3.98 -7.91)"/><path d="M607.93,211.61h-9.56v-1.38h.29c1-.07,1.63-.24,1.84-.51a5.3,5.3,0,0,0,.3-2.38V194a5.28,5.28,0,0,0-.3-2.37c-.19-.26-.81-.44-1.84-.51l-.29,0v-1.37h9.56v1.37l-.28,0c-1,.07-1.66.25-1.86.51a5.34,5.34,0,0,0-.29,2.37v13.34a5.3,5.3,0,0,0,.3,2.38c.2.27.82.44,1.85.51h.28Z" transform="translate(-3.98 -7.91)"/><path d="M617.37,191.16H613.7a2.88,2.88,0,0,0-1.81.38c-.27.25-.41,1-.42,2.32l0,.41H609.2v-4.55h21v4.55H628v-.41c0-1.3-.15-2.07-.42-2.32a2.9,2.9,0,0,0-1.82-.38h-3.66v16.16a6.85,6.85,0,0,0,.35,2.49,4.86,4.86,0,0,0,2.19.41h.27v1.38H614.55v-1.38h.28c1.23-.08,2-.25,2.19-.51a4.61,4.61,0,0,0,.35-2.38Z" transform="translate(-3.98 -7.91)"/><path d="M640.8,189.72h9.56v1.37l-.28,0c-1,.07-1.66.25-1.85.51a5.28,5.28,0,0,0-.3,2.37v9.47q0,3.94,1.14,5.59a4.35,4.35,0,0,0,3.87,1.66,5,5,0,0,0,4.23-1.75q1.32-1.76,1.32-5.62V194a5.28,5.28,0,0,0-.3-2.37c-.19-.26-.82-.44-1.86-.51l-.27,0v-1.37h7.06v1.37l-.27,0c-1,.07-1.63.25-1.82.51a5.34,5.34,0,0,0-.29,2.37v9q0,4.71-2,6.93t-6.37,2.24q-9.11,0-9.1-8.88v-9.19a5.36,5.36,0,0,0-.3-2.39c-.21-.28-.82-.45-1.84-.51l-.29,0Z" transform="translate(-3.98 -7.91)"/><path d="M681.54,211.92l-12.47-16.58v12a5.3,5.3,0,0,0,.3,2.38c.2.27.82.44,1.85.51h.28v1.38h-7.08v-1.38h.29q1.53-.1,1.83-.51a5.1,5.1,0,0,0,.31-2.38V194a5.28,5.28,0,0,0-.3-2.37c-.2-.26-.81-.44-1.84-.51l-.29,0v-1.37h5.63l12.39,16.53V194a5.5,5.5,0,0,0-.29-2.37c-.2-.26-.82-.44-1.86-.51l-.28,0v-1.37h7.08v1.37l-.27,0c-1,.07-1.65.25-1.86.51a5.28,5.28,0,0,0-.3,2.37v17.93Z" transform="translate(-3.98 -7.91)"/><path d="M698.49,211.61h-9.56v-1.38h.29c1-.07,1.63-.24,1.84-.51a5.3,5.3,0,0,0,.3-2.38V194a5.28,5.28,0,0,0-.3-2.37c-.19-.26-.81-.44-1.84-.51l-.29,0v-1.37h9.56v1.37l-.28,0c-1,.07-1.66.25-1.86.51a5.5,5.5,0,0,0-.29,2.37v13.34a5.3,5.3,0,0,0,.3,2.38c.2.27.82.44,1.85.51h.28Z" transform="translate(-3.98 -7.91)"/><path d="M711.77,212.16a11.22,11.22,0,0,1-8.36-3.09,13.13,13.13,0,0,1,0-16.83,12.89,12.89,0,0,1,16.7,0,13.1,13.1,0,0,1,0,16.83A11.18,11.18,0,0,1,711.77,212.16Zm0-1.45a5.33,5.33,0,0,0,4.83-2.53q1.6-2.52,1.6-7.57t-1.6-7.5a5.93,5.93,0,0,0-9.66,0q-1.61,2.49-1.61,7.5t1.61,7.57A5.35,5.35,0,0,0,711.78,210.71Z" transform="translate(-3.98 -7.91)"/><path d="M742.15,211.92l-12.48-16.58v12a5.1,5.1,0,0,0,.31,2.38c.2.27.82.44,1.85.51h.27v1.38H725v-1.38h.29c1-.07,1.64-.24,1.84-.51a5.3,5.3,0,0,0,.3-2.38V194a5.34,5.34,0,0,0-.29-2.37c-.2-.26-.82-.44-1.85-.51l-.29,0v-1.37h5.64l12.39,16.53V194a5.28,5.28,0,0,0-.3-2.37c-.19-.26-.81-.44-1.85-.51l-.28,0v-1.37h7.08v1.37l-.28,0c-1,.07-1.65.25-1.85.51a5.28,5.28,0,0,0-.3,2.37v17.93Z" transform="translate(-3.98 -7.91)"/><path d="M776.56,211.61H759.23v-1.38h.29c1-.07,1.64-.24,1.84-.51a5.3,5.3,0,0,0,.3-2.38V194a5.5,5.5,0,0,0-.29-2.37c-.2-.26-.82-.44-1.85-.51l-.29,0v-1.37h9.56v1.37l-.27,0c-1,.07-1.67.25-1.86.51a5.28,5.28,0,0,0-.3,2.37v13.33c0,1.64.2,2.51.6,2.62a13.54,13.54,0,0,0,2.43.12h1.9a19,19,0,0,0,2.19-.12.77.77,0,0,0,.67-.37,14.56,14.56,0,0,0,.14-2.89l0-.28h2.25Z" transform="translate(-3.98 -7.91)"/><path d="M785.54,191.16h-3.66a2.9,2.9,0,0,0-1.82.38c-.27.25-.41,1-.42,2.32v.41h-2.25v-4.55h21v4.55h-2.25v-.41c0-1.3-.15-2.07-.42-2.32a2.88,2.88,0,0,0-1.81-.38h-3.67v16.16a6.85,6.85,0,0,0,.35,2.49,4.9,4.9,0,0,0,2.19.41H793v1.38H782.73v-1.38H783a3.89,3.89,0,0,0,2.2-.51,4.77,4.77,0,0,0,.34-2.38Z" transform="translate(-3.98 -7.91)"/><path d="M799.64,211.61v-1.38h.29c1-.07,1.64-.24,1.84-.51a5.3,5.3,0,0,0,.3-2.38V194a5.5,5.5,0,0,0-.29-2.37c-.2-.26-.82-.44-1.85-.51l-.29,0v-1.37H807l3.24-.05,1.19,0c3.51,0,6.21.92,8.1,2.74s2.82,4.43,2.82,7.81a11.76,11.76,0,0,1-2.87,8.31,10,10,0,0,1-7.7,3.1Zm7.1-20.45v16.16c0,1.2.18,2,.56,2.27a5,5,0,0,0,2.73.47,6.38,6.38,0,0,0,5.49-2.47q1.83-2.46,1.83-7.39c0-3.27-.68-5.6-2-7s-3.65-2.07-6.88-2.07Z" transform="translate(-3.98 -7.91)"/><path d="M825.37,211.61v-4.75h4.88v4.75Z" transform="translate(-3.98 -7.91)"/></svg>